<?xml version="1.0" encoding="UTF-8" standalone="no"?>
<!DOCTYPE svg PUBLIC "-//W3C//DTD SVG 1.1//EN"
 "http://www.w3.org/Graphics/SVG/1.1/DTD/svg11.dtd">
<!-- Generated by graphviz version 2.43.0 (0)
 -->
<!-- Title: g Pages: 1 -->
<svg width="884pt" height="182pt"
 viewBox="0.00 0.00 884.00 182.00" xmlns="http://www.w3.org/2000/svg" xmlns:xlink="http://www.w3.org/1999/xlink">
<g id="graph0" class="graph" transform="scale(1 1) rotate(0) translate(4 178)">
<title>g</title>
<polygon fill="white" stroke="transparent" points="-4,4 -4,-178 880,-178 880,4 -4,4"/>
<!-- Nodo97fb5886&#45;a045&#45;accd&#45;094d&#45;0df64ce31c49 -->
<g id="node1" class="node">
<title>Nodo97fb5886&#45;a045&#45;accd&#45;094d&#45;0df64ce31c49</title>
<polygon fill="none" stroke="black" points="235.5,-105.5 235.5,-173.5 622.5,-173.5 622.5,-105.5 235.5,-105.5"/>
<text text-anchor="middle" x="246" y="-135.8" font-family="Times,serif" font-size="14.00"> </text>
<polyline fill="none" stroke="black" points="256.5,-105.5 256.5,-173.5 "/>
<text text-anchor="middle" x="337" y="-158.3" font-family="Times,serif" font-size="14.00">Nick: Folagor,</text>
<text text-anchor="middle" x="337" y="-143.3" font-family="Times,serif" font-size="14.00"> password: alfal475,</text>
<text text-anchor="middle" x="337" y="-128.3" font-family="Times,serif" font-size="14.00"> monedas: 700,</text>
<text text-anchor="middle" x="337" y="-113.3" font-family="Times,serif" font-size="14.00"> edad: 29</text>
<polyline fill="none" stroke="black" points="417.5,-105.5 417.5,-173.5 "/>
<text text-anchor="middle" x="428" y="-135.8" font-family="Times,serif" font-size="14.00"> </text>
<polyline fill="none" stroke="black" points="438.5,-105.5 438.5,-173.5 "/>
<text text-anchor="middle" x="520" y="-158.3" font-family="Times,serif" font-size="14.00">Nick: Pikachu,</text>
<text text-anchor="middle" x="520" y="-143.3" font-family="Times,serif" font-size="14.00"> password: beliz5a4,</text>
<text text-anchor="middle" x="520" y="-128.3" font-family="Times,serif" font-size="14.00"> monedas: 59,</text>
<text text-anchor="middle" x="520" y="-113.3" font-family="Times,serif" font-size="14.00"> edad: 18</text>
<polyline fill="none" stroke="black" points="601.5,-105.5 601.5,-173.5 "/>
<text text-anchor="middle" x="612" y="-135.8" font-family="Times,serif" font-size="14.00"> </text>
</g>
<!-- Nodo232d72c9&#45;a74c&#45;8d18&#45;a2bb&#45;de9b11cae7b2 -->
<g id="node2" class="node">
<title>Nodo232d72c9&#45;a74c&#45;8d18&#45;a2bb&#45;de9b11cae7b2</title>
<polygon fill="none" stroke="black" points="0,-0.5 0,-68.5 198,-68.5 198,-0.5 0,-0.5"/>
<text text-anchor="middle" x="10.5" y="-30.8" font-family="Times,serif" font-size="14.00"> </text>
<polyline fill="none" stroke="black" points="21,-0.5 21,-68.5 "/>
<text text-anchor="middle" x="99" y="-53.3" font-family="Times,serif" font-size="14.00">Nick: Carlos,</text>
<text text-anchor="middle" x="99" y="-38.3" font-family="Times,serif" font-size="14.00"> password: edd123,</text>
<text text-anchor="middle" x="99" y="-23.3" font-family="Times,serif" font-size="14.00"> monedas: 550,</text>
<text text-anchor="middle" x="99" y="-8.3" font-family="Times,serif" font-size="14.00"> edad: 22</text>
<polyline fill="none" stroke="black" points="177,-0.5 177,-68.5 "/>
<text text-anchor="middle" x="187.5" y="-30.8" font-family="Times,serif" font-size="14.00"> </text>
</g>
<!-- Nodo97fb5886&#45;a045&#45;accd&#45;094d&#45;0df64ce31c49&#45;&gt;Nodo232d72c9&#45;a74c&#45;8d18&#45;a2bb&#45;de9b11cae7b2 -->
<g id="edge1" class="edge">
<title>Nodo97fb5886&#45;a045&#45;accd&#45;094d&#45;0df64ce31c49:P0&#45;&gt;Nodo232d72c9&#45;a74c&#45;8d18&#45;a2bb&#45;de9b11cae7b2</title>
<path fill="none" stroke="black" d="M246,-105C246,-92.9 229.53,-81.12 207.61,-70.79"/>
<polygon fill="black" stroke="black" points="208.83,-67.5 198.27,-66.61 205.97,-73.89 208.83,-67.5"/>
</g>
<!-- Nodoa6be663c&#45;33e1&#45;769e&#45;e922&#45;008851cd100b -->
<g id="node3" class="node">
<title>Nodoa6be663c&#45;33e1&#45;769e&#45;e922&#45;008851cd100b</title>
<polygon fill="none" stroke="black" points="216,-0.5 216,-68.5 640,-68.5 640,-0.5 216,-0.5"/>
<text text-anchor="middle" x="226.5" y="-30.8" font-family="Times,serif" font-size="14.00"> </text>
<polyline fill="none" stroke="black" points="237,-0.5 237,-68.5 "/>
<text text-anchor="middle" x="322" y="-53.3" font-family="Times,serif" font-size="14.00">Nick: Goku,</text>
<text text-anchor="middle" x="322" y="-38.3" font-family="Times,serif" font-size="14.00"> password: agga516r,</text>
<text text-anchor="middle" x="322" y="-23.3" font-family="Times,serif" font-size="14.00"> monedas: 56,</text>
<text text-anchor="middle" x="322" y="-8.3" font-family="Times,serif" font-size="14.00"> edad: 20</text>
<polyline fill="none" stroke="black" points="407,-0.5 407,-68.5 "/>
<text text-anchor="middle" x="417.5" y="-30.8" font-family="Times,serif" font-size="14.00"> </text>
<polyline fill="none" stroke="black" points="428,-0.5 428,-68.5 "/>
<text text-anchor="middle" x="523.5" y="-53.3" font-family="Times,serif" font-size="14.00">Nick: Homero,</text>
<text text-anchor="middle" x="523.5" y="-38.3" font-family="Times,serif" font-size="14.00"> password: agfa84aafg8,</text>
<text text-anchor="middle" x="523.5" y="-23.3" font-family="Times,serif" font-size="14.00"> monedas: 86,</text>
<text text-anchor="middle" x="523.5" y="-8.3" font-family="Times,serif" font-size="14.00"> edad: 45</text>
<polyline fill="none" stroke="black" points="619,-0.5 619,-68.5 "/>
<text text-anchor="middle" x="629.5" y="-30.8" font-family="Times,serif" font-size="14.00"> </text>
</g>
<!-- Nodo97fb5886&#45;a045&#45;accd&#45;094d&#45;0df64ce31c49&#45;&gt;Nodoa6be663c&#45;33e1&#45;769e&#45;e922&#45;008851cd100b -->
<g id="edge2" class="edge">
<title>Nodo97fb5886&#45;a045&#45;accd&#45;094d&#45;0df64ce31c49:P1&#45;&gt;Nodoa6be663c&#45;33e1&#45;769e&#45;e922&#45;008851cd100b</title>
<path fill="none" stroke="black" d="M428,-105C428,-96.59 428,-87.61 428,-79"/>
<polygon fill="black" stroke="black" points="431.5,-78.73 428,-68.73 424.5,-78.73 431.5,-78.73"/>
</g>
<!-- Nododb49809b&#45;3713&#45;a233&#45;f851&#45;8e5480dca334 -->
<g id="node4" class="node">
<title>Nododb49809b&#45;3713&#45;a233&#45;f851&#45;8e5480dca334</title>
<polygon fill="none" stroke="black" points="658,-0.5 658,-68.5 876,-68.5 876,-0.5 658,-0.5"/>
<text text-anchor="middle" x="668.5" y="-30.8" font-family="Times,serif" font-size="14.00"> </text>
<polyline fill="none" stroke="black" points="679,-0.5 679,-68.5 "/>
<text text-anchor="middle" x="767" y="-53.3" font-family="Times,serif" font-size="14.00">Nick: Planton,</text>
<text text-anchor="middle" x="767" y="-38.3" font-family="Times,serif" font-size="14.00"> password: cam78dad,</text>
<text text-anchor="middle" x="767" y="-23.3" font-family="Times,serif" font-size="14.00"> monedas: 50,</text>
<text text-anchor="middle" x="767" y="-8.3" font-family="Times,serif" font-size="14.00"> edad: 20</text>
<polyline fill="none" stroke="black" points="855,-0.5 855,-68.5 "/>
<text text-anchor="middle" x="865.5" y="-30.8" font-family="Times,serif" font-size="14.00"> </text>
</g>
<!-- Nodo97fb5886&#45;a045&#45;accd&#45;094d&#45;0df64ce31c49&#45;&gt;Nododb49809b&#45;3713&#45;a233&#45;f851&#45;8e5480dca334 -->
<g id="edge3" class="edge">
<title>Nodo97fb5886&#45;a045&#45;accd&#45;094d&#45;0df64ce31c49:P2&#45;&gt;Nododb49809b&#45;3713&#45;a233&#45;f851&#45;8e5480dca334</title>
<path fill="none" stroke="black" d="M612,-105C612,-93.13 627.33,-81.85 648.34,-71.97"/>
<polygon fill="black" stroke="black" points="649.95,-75.08 657.67,-67.82 647.11,-68.69 649.95,-75.08"/>
</g>
</g>
</svg>
