<?xml version="1.0" encoding="UTF-8" standalone="no"?>
<!DOCTYPE svg PUBLIC "-//W3C//DTD SVG 1.1//EN"
 "http://www.w3.org/Graphics/SVG/1.1/DTD/svg11.dtd">
<!-- Generated by graphviz version 2.50.0 (20211204.2007)
 -->
<!-- Title: G Pages: 1 -->
<svg width="4316pt" height="46pt"
 viewBox="0.00 0.00 4316.00 46.00" xmlns="http://www.w3.org/2000/svg" xmlns:xlink="http://www.w3.org/1999/xlink">
<g id="graph0" class="graph" transform="scale(1 1) rotate(0) translate(4 42)">
<title>G</title>
<polygon fill="white" stroke="transparent" points="-4,4 -4,-42 4312,-42 4312,4 -4,4"/>
<!-- Node0 -->
<g id="node1" class="node">
<title>Node0</title>
<polygon fill="#ededed" stroke="black" points="4308,-38 4230,-38 4230,0 4308,0 4308,-38"/>
<text text-anchor="middle" x="4269" y="-22.8" font-family="Times New Roman,serif" font-size="14.00">Ancho: 13,</text>
<text text-anchor="middle" x="4269" y="-7.8" font-family="Times New Roman,serif" font-size="14.00">Alto: 7</text>
</g>
<!-- Node1 -->
<g id="node2" class="node">
<title>Node1</title>
<polygon fill="#ededed" stroke="black" points="4194,-38 4140,-38 4140,0 4194,0 4194,-38"/>
<text text-anchor="middle" x="4167" y="-22.8" font-family="Times New Roman,serif" font-size="14.00">X: 14,</text>
<text text-anchor="middle" x="4167" y="-7.8" font-family="Times New Roman,serif" font-size="14.00">Y: 10</text>
</g>
<!-- Node1&#45;&gt;Node0 -->
<g id="edge1" class="edge">
<title>Node1&#45;&gt;Node0</title>
<path fill="none" stroke="black" d="M4194.01,-19C4201.83,-19 4210.68,-19 4219.46,-19"/>
<polygon fill="black" stroke="black" points="4219.68,-22.5 4229.68,-19 4219.68,-15.5 4219.68,-22.5"/>
</g>
<!-- Node2 -->
<g id="node3" class="node">
<title>Node2</title>
<polygon fill="#ededed" stroke="black" points="4104,-38 4050,-38 4050,0 4104,0 4104,-38"/>
<text text-anchor="middle" x="4077" y="-22.8" font-family="Times New Roman,serif" font-size="14.00">X: 8,</text>
<text text-anchor="middle" x="4077" y="-7.8" font-family="Times New Roman,serif" font-size="14.00">Y: 1</text>
</g>
<!-- Node2&#45;&gt;Node1 -->
<g id="edge2" class="edge">
<title>Node2&#45;&gt;Node1</title>
<path fill="none" stroke="black" d="M4104.4,-19C4112.39,-19 4121.31,-19 4129.82,-19"/>
<polygon fill="black" stroke="black" points="4129.92,-22.5 4139.92,-19 4129.92,-15.5 4129.92,-22.5"/>
</g>
<!-- Node3 -->
<g id="node4" class="node">
<title>Node3</title>
<polygon fill="#ededed" stroke="black" points="4014,-38 3960,-38 3960,0 4014,0 4014,-38"/>
<text text-anchor="middle" x="3987" y="-22.8" font-family="Times New Roman,serif" font-size="14.00">X: 5,</text>
<text text-anchor="middle" x="3987" y="-7.8" font-family="Times New Roman,serif" font-size="14.00">Y: 1</text>
</g>
<!-- Node3&#45;&gt;Node2 -->
<g id="edge3" class="edge">
<title>Node3&#45;&gt;Node2</title>
<path fill="none" stroke="black" d="M4014.4,-19C4022.39,-19 4031.31,-19 4039.82,-19"/>
<polygon fill="black" stroke="black" points="4039.92,-22.5 4049.92,-19 4039.92,-15.5 4039.92,-22.5"/>
</g>
<!-- Node4 -->
<g id="node5" class="node">
<title>Node4</title>
<polygon fill="#ededed" stroke="black" points="3924,-38 3870,-38 3870,0 3924,0 3924,-38"/>
<text text-anchor="middle" x="3897" y="-22.8" font-family="Times New Roman,serif" font-size="14.00">X: 4,</text>
<text text-anchor="middle" x="3897" y="-7.8" font-family="Times New Roman,serif" font-size="14.00">Y: 13</text>
</g>
<!-- Node4&#45;&gt;Node3 -->
<g id="edge4" class="edge">
<title>Node4&#45;&gt;Node3</title>
<path fill="none" stroke="black" d="M3924.4,-19C3932.39,-19 3941.31,-19 3949.82,-19"/>
<polygon fill="black" stroke="black" points="3949.92,-22.5 3959.92,-19 3949.92,-15.5 3949.92,-22.5"/>
</g>
<!-- Node5 -->
<g id="node6" class="node">
<title>Node5</title>
<polygon fill="#ededed" stroke="black" points="3834,-38 3780,-38 3780,0 3834,0 3834,-38"/>
<text text-anchor="middle" x="3807" y="-22.8" font-family="Times New Roman,serif" font-size="14.00">X: 6,</text>
<text text-anchor="middle" x="3807" y="-7.8" font-family="Times New Roman,serif" font-size="14.00">Y: 5</text>
</g>
<!-- Node5&#45;&gt;Node4 -->
<g id="edge5" class="edge">
<title>Node5&#45;&gt;Node4</title>
<path fill="none" stroke="black" d="M3834.4,-19C3842.39,-19 3851.31,-19 3859.82,-19"/>
<polygon fill="black" stroke="black" points="3859.92,-22.5 3869.92,-19 3859.92,-15.5 3859.92,-22.5"/>
</g>
<!-- Node6 -->
<g id="node7" class="node">
<title>Node6</title>
<polygon fill="#ededed" stroke="black" points="3744,-38 3690,-38 3690,0 3744,0 3744,-38"/>
<text text-anchor="middle" x="3717" y="-22.8" font-family="Times New Roman,serif" font-size="14.00">X: 3,</text>
<text text-anchor="middle" x="3717" y="-7.8" font-family="Times New Roman,serif" font-size="14.00">Y: 3</text>
</g>
<!-- Node6&#45;&gt;Node5 -->
<g id="edge6" class="edge">
<title>Node6&#45;&gt;Node5</title>
<path fill="none" stroke="black" d="M3744.4,-19C3752.39,-19 3761.31,-19 3769.82,-19"/>
<polygon fill="black" stroke="black" points="3769.92,-22.5 3779.92,-19 3769.92,-15.5 3769.92,-22.5"/>
</g>
<!-- Node7 -->
<g id="node8" class="node">
<title>Node7</title>
<polygon fill="#ededed" stroke="black" points="3654,-38 3600,-38 3600,0 3654,0 3654,-38"/>
<text text-anchor="middle" x="3627" y="-22.8" font-family="Times New Roman,serif" font-size="14.00">X: 13,</text>
<text text-anchor="middle" x="3627" y="-7.8" font-family="Times New Roman,serif" font-size="14.00">Y: 12</text>
</g>
<!-- Node7&#45;&gt;Node6 -->
<g id="edge7" class="edge">
<title>Node7&#45;&gt;Node6</title>
<path fill="none" stroke="black" d="M3654.4,-19C3662.39,-19 3671.31,-19 3679.82,-19"/>
<polygon fill="black" stroke="black" points="3679.92,-22.5 3689.92,-19 3679.92,-15.5 3679.92,-22.5"/>
</g>
<!-- Node8 -->
<g id="node9" class="node">
<title>Node8</title>
<polygon fill="#ededed" stroke="black" points="3564,-38 3510,-38 3510,0 3564,0 3564,-38"/>
<text text-anchor="middle" x="3537" y="-22.8" font-family="Times New Roman,serif" font-size="14.00">X: 12,</text>
<text text-anchor="middle" x="3537" y="-7.8" font-family="Times New Roman,serif" font-size="14.00">Y: 3</text>
</g>
<!-- Node8&#45;&gt;Node7 -->
<g id="edge8" class="edge">
<title>Node8&#45;&gt;Node7</title>
<path fill="none" stroke="black" d="M3564.4,-19C3572.39,-19 3581.31,-19 3589.82,-19"/>
<polygon fill="black" stroke="black" points="3589.92,-22.5 3599.92,-19 3589.92,-15.5 3589.92,-22.5"/>
</g>
<!-- Node9 -->
<g id="node10" class="node">
<title>Node9</title>
<polygon fill="#ededed" stroke="black" points="3474,-38 3420,-38 3420,0 3474,0 3474,-38"/>
<text text-anchor="middle" x="3447" y="-22.8" font-family="Times New Roman,serif" font-size="14.00">X: 9,</text>
<text text-anchor="middle" x="3447" y="-7.8" font-family="Times New Roman,serif" font-size="14.00">Y: 14</text>
</g>
<!-- Node9&#45;&gt;Node8 -->
<g id="edge9" class="edge">
<title>Node9&#45;&gt;Node8</title>
<path fill="none" stroke="black" d="M3474.4,-19C3482.39,-19 3491.31,-19 3499.82,-19"/>
<polygon fill="black" stroke="black" points="3499.92,-22.5 3509.92,-19 3499.92,-15.5 3499.92,-22.5"/>
</g>
<!-- Node10 -->
<g id="node11" class="node">
<title>Node10</title>
<polygon fill="#ededed" stroke="black" points="3384,-38 3330,-38 3330,0 3384,0 3384,-38"/>
<text text-anchor="middle" x="3357" y="-22.8" font-family="Times New Roman,serif" font-size="14.00">X: 1,</text>
<text text-anchor="middle" x="3357" y="-7.8" font-family="Times New Roman,serif" font-size="14.00">Y: 3</text>
</g>
<!-- Node10&#45;&gt;Node9 -->
<g id="edge10" class="edge">
<title>Node10&#45;&gt;Node9</title>
<path fill="none" stroke="black" d="M3384.4,-19C3392.39,-19 3401.31,-19 3409.82,-19"/>
<polygon fill="black" stroke="black" points="3409.92,-22.5 3419.92,-19 3409.92,-15.5 3409.92,-22.5"/>
</g>
<!-- Node11 -->
<g id="node12" class="node">
<title>Node11</title>
<polygon fill="#ededed" stroke="black" points="3294,-38 3240,-38 3240,0 3294,0 3294,-38"/>
<text text-anchor="middle" x="3267" y="-22.8" font-family="Times New Roman,serif" font-size="14.00">X: 4,</text>
<text text-anchor="middle" x="3267" y="-7.8" font-family="Times New Roman,serif" font-size="14.00">Y: 2</text>
</g>
<!-- Node11&#45;&gt;Node10 -->
<g id="edge11" class="edge">
<title>Node11&#45;&gt;Node10</title>
<path fill="none" stroke="black" d="M3294.4,-19C3302.39,-19 3311.31,-19 3319.82,-19"/>
<polygon fill="black" stroke="black" points="3319.92,-22.5 3329.92,-19 3319.92,-15.5 3319.92,-22.5"/>
</g>
<!-- Node12 -->
<g id="node13" class="node">
<title>Node12</title>
<polygon fill="#ededed" stroke="black" points="3204,-38 3150,-38 3150,0 3204,0 3204,-38"/>
<text text-anchor="middle" x="3177" y="-22.8" font-family="Times New Roman,serif" font-size="14.00">X: 0,</text>
<text text-anchor="middle" x="3177" y="-7.8" font-family="Times New Roman,serif" font-size="14.00">Y: 1</text>
</g>
<!-- Node12&#45;&gt;Node11 -->
<g id="edge12" class="edge">
<title>Node12&#45;&gt;Node11</title>
<path fill="none" stroke="black" d="M3204.4,-19C3212.39,-19 3221.31,-19 3229.82,-19"/>
<polygon fill="black" stroke="black" points="3229.92,-22.5 3239.92,-19 3229.92,-15.5 3229.92,-22.5"/>
</g>
<!-- Node13 -->
<g id="node14" class="node">
<title>Node13</title>
<polygon fill="#ededed" stroke="black" points="3114,-38 3060,-38 3060,0 3114,0 3114,-38"/>
<text text-anchor="middle" x="3087" y="-22.8" font-family="Times New Roman,serif" font-size="14.00">X: 12,</text>
<text text-anchor="middle" x="3087" y="-7.8" font-family="Times New Roman,serif" font-size="14.00">Y: 14</text>
</g>
<!-- Node13&#45;&gt;Node12 -->
<g id="edge13" class="edge">
<title>Node13&#45;&gt;Node12</title>
<path fill="none" stroke="black" d="M3114.4,-19C3122.39,-19 3131.31,-19 3139.82,-19"/>
<polygon fill="black" stroke="black" points="3139.92,-22.5 3149.92,-19 3139.92,-15.5 3139.92,-22.5"/>
</g>
<!-- Node14 -->
<g id="node15" class="node">
<title>Node14</title>
<polygon fill="#ededed" stroke="black" points="3024,-38 2970,-38 2970,0 3024,0 3024,-38"/>
<text text-anchor="middle" x="2997" y="-22.8" font-family="Times New Roman,serif" font-size="14.00">X: 2,</text>
<text text-anchor="middle" x="2997" y="-7.8" font-family="Times New Roman,serif" font-size="14.00">Y: 14</text>
</g>
<!-- Node14&#45;&gt;Node13 -->
<g id="edge14" class="edge">
<title>Node14&#45;&gt;Node13</title>
<path fill="none" stroke="black" d="M3024.4,-19C3032.39,-19 3041.31,-19 3049.82,-19"/>
<polygon fill="black" stroke="black" points="3049.92,-22.5 3059.92,-19 3049.92,-15.5 3049.92,-22.5"/>
</g>
<!-- Node15 -->
<g id="node16" class="node">
<title>Node15</title>
<polygon fill="#ededed" stroke="black" points="2934,-38 2880,-38 2880,0 2934,0 2934,-38"/>
<text text-anchor="middle" x="2907" y="-22.8" font-family="Times New Roman,serif" font-size="14.00">X: 8,</text>
<text text-anchor="middle" x="2907" y="-7.8" font-family="Times New Roman,serif" font-size="14.00">Y: 11</text>
</g>
<!-- Node15&#45;&gt;Node14 -->
<g id="edge15" class="edge">
<title>Node15&#45;&gt;Node14</title>
<path fill="none" stroke="black" d="M2934.4,-19C2942.39,-19 2951.31,-19 2959.82,-19"/>
<polygon fill="black" stroke="black" points="2959.92,-22.5 2969.92,-19 2959.92,-15.5 2959.92,-22.5"/>
</g>
<!-- Node16 -->
<g id="node17" class="node">
<title>Node16</title>
<polygon fill="#ededed" stroke="black" points="2844,-38 2790,-38 2790,0 2844,0 2844,-38"/>
<text text-anchor="middle" x="2817" y="-22.8" font-family="Times New Roman,serif" font-size="14.00">X: 2,</text>
<text text-anchor="middle" x="2817" y="-7.8" font-family="Times New Roman,serif" font-size="14.00">Y: 8</text>
</g>
<!-- Node16&#45;&gt;Node15 -->
<g id="edge16" class="edge">
<title>Node16&#45;&gt;Node15</title>
<path fill="none" stroke="black" d="M2844.4,-19C2852.39,-19 2861.31,-19 2869.82,-19"/>
<polygon fill="black" stroke="black" points="2869.92,-22.5 2879.92,-19 2869.92,-15.5 2869.92,-22.5"/>
</g>
<!-- Node17 -->
<g id="node18" class="node">
<title>Node17</title>
<polygon fill="#ededed" stroke="black" points="2754,-38 2700,-38 2700,0 2754,0 2754,-38"/>
<text text-anchor="middle" x="2727" y="-22.8" font-family="Times New Roman,serif" font-size="14.00">X: 7,</text>
<text text-anchor="middle" x="2727" y="-7.8" font-family="Times New Roman,serif" font-size="14.00">Y: 10</text>
</g>
<!-- Node17&#45;&gt;Node16 -->
<g id="edge17" class="edge">
<title>Node17&#45;&gt;Node16</title>
<path fill="none" stroke="black" d="M2754.4,-19C2762.39,-19 2771.31,-19 2779.82,-19"/>
<polygon fill="black" stroke="black" points="2779.92,-22.5 2789.92,-19 2779.92,-15.5 2779.92,-22.5"/>
</g>
<!-- Node18 -->
<g id="node19" class="node">
<title>Node18</title>
<polygon fill="#ededed" stroke="black" points="2664,-38 2610,-38 2610,0 2664,0 2664,-38"/>
<text text-anchor="middle" x="2637" y="-22.8" font-family="Times New Roman,serif" font-size="14.00">X: 13,</text>
<text text-anchor="middle" x="2637" y="-7.8" font-family="Times New Roman,serif" font-size="14.00">Y: 9</text>
</g>
<!-- Node18&#45;&gt;Node17 -->
<g id="edge18" class="edge">
<title>Node18&#45;&gt;Node17</title>
<path fill="none" stroke="black" d="M2664.4,-19C2672.39,-19 2681.31,-19 2689.82,-19"/>
<polygon fill="black" stroke="black" points="2689.92,-22.5 2699.92,-19 2689.92,-15.5 2689.92,-22.5"/>
</g>
<!-- Node19 -->
<g id="node20" class="node">
<title>Node19</title>
<polygon fill="#ededed" stroke="black" points="2574,-38 2520,-38 2520,0 2574,0 2574,-38"/>
<text text-anchor="middle" x="2547" y="-22.8" font-family="Times New Roman,serif" font-size="14.00">X: 9,</text>
<text text-anchor="middle" x="2547" y="-7.8" font-family="Times New Roman,serif" font-size="14.00">Y: 14</text>
</g>
<!-- Node19&#45;&gt;Node18 -->
<g id="edge19" class="edge">
<title>Node19&#45;&gt;Node18</title>
<path fill="none" stroke="black" d="M2574.4,-19C2582.39,-19 2591.31,-19 2599.82,-19"/>
<polygon fill="black" stroke="black" points="2599.92,-22.5 2609.92,-19 2599.92,-15.5 2599.92,-22.5"/>
</g>
<!-- Node20 -->
<g id="node21" class="node">
<title>Node20</title>
<polygon fill="#ededed" stroke="black" points="2484,-38 2430,-38 2430,0 2484,0 2484,-38"/>
<text text-anchor="middle" x="2457" y="-22.8" font-family="Times New Roman,serif" font-size="14.00">X: 13,</text>
<text text-anchor="middle" x="2457" y="-7.8" font-family="Times New Roman,serif" font-size="14.00">Y: 10</text>
</g>
<!-- Node20&#45;&gt;Node19 -->
<g id="edge20" class="edge">
<title>Node20&#45;&gt;Node19</title>
<path fill="none" stroke="black" d="M2484.4,-19C2492.39,-19 2501.31,-19 2509.82,-19"/>
<polygon fill="black" stroke="black" points="2509.92,-22.5 2519.92,-19 2509.92,-15.5 2509.92,-22.5"/>
</g>
<!-- Node21 -->
<g id="node22" class="node">
<title>Node21</title>
<polygon fill="#ededed" stroke="black" points="2394,-38 2340,-38 2340,0 2394,0 2394,-38"/>
<text text-anchor="middle" x="2367" y="-22.8" font-family="Times New Roman,serif" font-size="14.00">X: 7,</text>
<text text-anchor="middle" x="2367" y="-7.8" font-family="Times New Roman,serif" font-size="14.00">Y: 2</text>
</g>
<!-- Node21&#45;&gt;Node20 -->
<g id="edge21" class="edge">
<title>Node21&#45;&gt;Node20</title>
<path fill="none" stroke="black" d="M2394.4,-19C2402.39,-19 2411.31,-19 2419.82,-19"/>
<polygon fill="black" stroke="black" points="2419.92,-22.5 2429.92,-19 2419.92,-15.5 2419.92,-22.5"/>
</g>
<!-- Node22 -->
<g id="node23" class="node">
<title>Node22</title>
<polygon fill="#ededed" stroke="black" points="2304,-38 2250,-38 2250,0 2304,0 2304,-38"/>
<text text-anchor="middle" x="2277" y="-22.8" font-family="Times New Roman,serif" font-size="14.00">X: 14,</text>
<text text-anchor="middle" x="2277" y="-7.8" font-family="Times New Roman,serif" font-size="14.00">Y: 13</text>
</g>
<!-- Node22&#45;&gt;Node21 -->
<g id="edge22" class="edge">
<title>Node22&#45;&gt;Node21</title>
<path fill="none" stroke="black" d="M2304.4,-19C2312.39,-19 2321.31,-19 2329.82,-19"/>
<polygon fill="black" stroke="black" points="2329.92,-22.5 2339.92,-19 2329.92,-15.5 2329.92,-22.5"/>
</g>
<!-- Node23 -->
<g id="node24" class="node">
<title>Node23</title>
<polygon fill="#ededed" stroke="black" points="2214,-38 2160,-38 2160,0 2214,0 2214,-38"/>
<text text-anchor="middle" x="2187" y="-22.8" font-family="Times New Roman,serif" font-size="14.00">X: 9,</text>
<text text-anchor="middle" x="2187" y="-7.8" font-family="Times New Roman,serif" font-size="14.00">Y: 4</text>
</g>
<!-- Node23&#45;&gt;Node22 -->
<g id="edge23" class="edge">
<title>Node23&#45;&gt;Node22</title>
<path fill="none" stroke="black" d="M2214.4,-19C2222.39,-19 2231.31,-19 2239.82,-19"/>
<polygon fill="black" stroke="black" points="2239.92,-22.5 2249.92,-19 2239.92,-15.5 2239.92,-22.5"/>
</g>
<!-- Node24 -->
<g id="node25" class="node">
<title>Node24</title>
<polygon fill="#ededed" stroke="black" points="2124,-38 2070,-38 2070,0 2124,0 2124,-38"/>
<text text-anchor="middle" x="2097" y="-22.8" font-family="Times New Roman,serif" font-size="14.00">X: 12,</text>
<text text-anchor="middle" x="2097" y="-7.8" font-family="Times New Roman,serif" font-size="14.00">Y: 7</text>
</g>
<!-- Node24&#45;&gt;Node23 -->
<g id="edge24" class="edge">
<title>Node24&#45;&gt;Node23</title>
<path fill="none" stroke="black" d="M2124.4,-19C2132.39,-19 2141.31,-19 2149.82,-19"/>
<polygon fill="black" stroke="black" points="2149.92,-22.5 2159.92,-19 2149.92,-15.5 2149.92,-22.5"/>
</g>
<!-- Node25 -->
<g id="node26" class="node">
<title>Node25</title>
<polygon fill="#ededed" stroke="black" points="2034,-38 1980,-38 1980,0 2034,0 2034,-38"/>
<text text-anchor="middle" x="2007" y="-22.8" font-family="Times New Roman,serif" font-size="14.00">X: 6,</text>
<text text-anchor="middle" x="2007" y="-7.8" font-family="Times New Roman,serif" font-size="14.00">Y: 3</text>
</g>
<!-- Node25&#45;&gt;Node24 -->
<g id="edge25" class="edge">
<title>Node25&#45;&gt;Node24</title>
<path fill="none" stroke="black" d="M2034.4,-19C2042.39,-19 2051.31,-19 2059.82,-19"/>
<polygon fill="black" stroke="black" points="2059.92,-22.5 2069.92,-19 2059.92,-15.5 2059.92,-22.5"/>
</g>
<!-- Node26 -->
<g id="node27" class="node">
<title>Node26</title>
<polygon fill="#ededed" stroke="black" points="1944,-38 1890,-38 1890,0 1944,0 1944,-38"/>
<text text-anchor="middle" x="1917" y="-22.8" font-family="Times New Roman,serif" font-size="14.00">X: 3,</text>
<text text-anchor="middle" x="1917" y="-7.8" font-family="Times New Roman,serif" font-size="14.00">Y: 0</text>
</g>
<!-- Node26&#45;&gt;Node25 -->
<g id="edge26" class="edge">
<title>Node26&#45;&gt;Node25</title>
<path fill="none" stroke="black" d="M1944.4,-19C1952.39,-19 1961.31,-19 1969.82,-19"/>
<polygon fill="black" stroke="black" points="1969.92,-22.5 1979.92,-19 1969.92,-15.5 1969.92,-22.5"/>
</g>
<!-- Node27 -->
<g id="node28" class="node">
<title>Node27</title>
<polygon fill="#ededed" stroke="black" points="1854,-38 1800,-38 1800,0 1854,0 1854,-38"/>
<text text-anchor="middle" x="1827" y="-22.8" font-family="Times New Roman,serif" font-size="14.00">X: 7,</text>
<text text-anchor="middle" x="1827" y="-7.8" font-family="Times New Roman,serif" font-size="14.00">Y: 9</text>
</g>
<!-- Node27&#45;&gt;Node26 -->
<g id="edge27" class="edge">
<title>Node27&#45;&gt;Node26</title>
<path fill="none" stroke="black" d="M1854.4,-19C1862.39,-19 1871.31,-19 1879.82,-19"/>
<polygon fill="black" stroke="black" points="1879.92,-22.5 1889.92,-19 1879.92,-15.5 1879.92,-22.5"/>
</g>
<!-- Node28 -->
<g id="node29" class="node">
<title>Node28</title>
<polygon fill="#ededed" stroke="black" points="1764,-38 1710,-38 1710,0 1764,0 1764,-38"/>
<text text-anchor="middle" x="1737" y="-22.8" font-family="Times New Roman,serif" font-size="14.00">X: 11,</text>
<text text-anchor="middle" x="1737" y="-7.8" font-family="Times New Roman,serif" font-size="14.00">Y: 3</text>
</g>
<!-- Node28&#45;&gt;Node27 -->
<g id="edge28" class="edge">
<title>Node28&#45;&gt;Node27</title>
<path fill="none" stroke="black" d="M1764.4,-19C1772.39,-19 1781.31,-19 1789.82,-19"/>
<polygon fill="black" stroke="black" points="1789.92,-22.5 1799.92,-19 1789.92,-15.5 1789.92,-22.5"/>
</g>
<!-- Node29 -->
<g id="node30" class="node">
<title>Node29</title>
<polygon fill="#ededed" stroke="black" points="1674,-38 1620,-38 1620,0 1674,0 1674,-38"/>
<text text-anchor="middle" x="1647" y="-22.8" font-family="Times New Roman,serif" font-size="14.00">X: 0,</text>
<text text-anchor="middle" x="1647" y="-7.8" font-family="Times New Roman,serif" font-size="14.00">Y: 14</text>
</g>
<!-- Node29&#45;&gt;Node28 -->
<g id="edge29" class="edge">
<title>Node29&#45;&gt;Node28</title>
<path fill="none" stroke="black" d="M1674.4,-19C1682.39,-19 1691.31,-19 1699.82,-19"/>
<polygon fill="black" stroke="black" points="1699.92,-22.5 1709.92,-19 1699.92,-15.5 1699.92,-22.5"/>
</g>
<!-- Node30 -->
<g id="node31" class="node">
<title>Node30</title>
<polygon fill="#ededed" stroke="black" points="1584,-38 1530,-38 1530,0 1584,0 1584,-38"/>
<text text-anchor="middle" x="1557" y="-22.8" font-family="Times New Roman,serif" font-size="14.00">X: 11,</text>
<text text-anchor="middle" x="1557" y="-7.8" font-family="Times New Roman,serif" font-size="14.00">Y: 14</text>
</g>
<!-- Node30&#45;&gt;Node29 -->
<g id="edge30" class="edge">
<title>Node30&#45;&gt;Node29</title>
<path fill="none" stroke="black" d="M1584.4,-19C1592.39,-19 1601.31,-19 1609.82,-19"/>
<polygon fill="black" stroke="black" points="1609.92,-22.5 1619.92,-19 1609.92,-15.5 1609.92,-22.5"/>
</g>
<!-- Node31 -->
<g id="node32" class="node">
<title>Node31</title>
<polygon fill="#ededed" stroke="black" points="1494,-38 1440,-38 1440,0 1494,0 1494,-38"/>
<text text-anchor="middle" x="1467" y="-22.8" font-family="Times New Roman,serif" font-size="14.00">X: 5,</text>
<text text-anchor="middle" x="1467" y="-7.8" font-family="Times New Roman,serif" font-size="14.00">Y: 14</text>
</g>
<!-- Node31&#45;&gt;Node30 -->
<g id="edge31" class="edge">
<title>Node31&#45;&gt;Node30</title>
<path fill="none" stroke="black" d="M1494.4,-19C1502.39,-19 1511.31,-19 1519.82,-19"/>
<polygon fill="black" stroke="black" points="1519.92,-22.5 1529.92,-19 1519.92,-15.5 1519.92,-22.5"/>
</g>
<!-- Node32 -->
<g id="node33" class="node">
<title>Node32</title>
<polygon fill="#ededed" stroke="black" points="1404,-38 1350,-38 1350,0 1404,0 1404,-38"/>
<text text-anchor="middle" x="1377" y="-22.8" font-family="Times New Roman,serif" font-size="14.00">X: 6,</text>
<text text-anchor="middle" x="1377" y="-7.8" font-family="Times New Roman,serif" font-size="14.00">Y: 5</text>
</g>
<!-- Node32&#45;&gt;Node31 -->
<g id="edge32" class="edge">
<title>Node32&#45;&gt;Node31</title>
<path fill="none" stroke="black" d="M1404.4,-19C1412.39,-19 1421.31,-19 1429.82,-19"/>
<polygon fill="black" stroke="black" points="1429.92,-22.5 1439.92,-19 1429.92,-15.5 1429.92,-22.5"/>
</g>
<!-- Node33 -->
<g id="node34" class="node">
<title>Node33</title>
<polygon fill="#ededed" stroke="black" points="1314,-38 1260,-38 1260,0 1314,0 1314,-38"/>
<text text-anchor="middle" x="1287" y="-22.8" font-family="Times New Roman,serif" font-size="14.00">X: 4,</text>
<text text-anchor="middle" x="1287" y="-7.8" font-family="Times New Roman,serif" font-size="14.00">Y: 0</text>
</g>
<!-- Node33&#45;&gt;Node32 -->
<g id="edge33" class="edge">
<title>Node33&#45;&gt;Node32</title>
<path fill="none" stroke="black" d="M1314.4,-19C1322.39,-19 1331.31,-19 1339.82,-19"/>
<polygon fill="black" stroke="black" points="1339.92,-22.5 1349.92,-19 1339.92,-15.5 1339.92,-22.5"/>
</g>
<!-- Node34 -->
<g id="node35" class="node">
<title>Node34</title>
<polygon fill="#ededed" stroke="black" points="1224,-38 1170,-38 1170,0 1224,0 1224,-38"/>
<text text-anchor="middle" x="1197" y="-22.8" font-family="Times New Roman,serif" font-size="14.00">X: 8,</text>
<text text-anchor="middle" x="1197" y="-7.8" font-family="Times New Roman,serif" font-size="14.00">Y: 14</text>
</g>
<!-- Node34&#45;&gt;Node33 -->
<g id="edge34" class="edge">
<title>Node34&#45;&gt;Node33</title>
<path fill="none" stroke="black" d="M1224.4,-19C1232.39,-19 1241.31,-19 1249.82,-19"/>
<polygon fill="black" stroke="black" points="1249.92,-22.5 1259.92,-19 1249.92,-15.5 1249.92,-22.5"/>
</g>
<!-- Node35 -->
<g id="node36" class="node">
<title>Node35</title>
<polygon fill="#ededed" stroke="black" points="1134,-38 1080,-38 1080,0 1134,0 1134,-38"/>
<text text-anchor="middle" x="1107" y="-22.8" font-family="Times New Roman,serif" font-size="14.00">X: 14,</text>
<text text-anchor="middle" x="1107" y="-7.8" font-family="Times New Roman,serif" font-size="14.00">Y: 5</text>
</g>
<!-- Node35&#45;&gt;Node34 -->
<g id="edge35" class="edge">
<title>Node35&#45;&gt;Node34</title>
<path fill="none" stroke="black" d="M1134.4,-19C1142.39,-19 1151.31,-19 1159.82,-19"/>
<polygon fill="black" stroke="black" points="1159.92,-22.5 1169.92,-19 1159.92,-15.5 1159.92,-22.5"/>
</g>
<!-- Node36 -->
<g id="node37" class="node">
<title>Node36</title>
<polygon fill="#ededed" stroke="black" points="1044,-38 990,-38 990,0 1044,0 1044,-38"/>
<text text-anchor="middle" x="1017" y="-22.8" font-family="Times New Roman,serif" font-size="14.00">X: 9,</text>
<text text-anchor="middle" x="1017" y="-7.8" font-family="Times New Roman,serif" font-size="14.00">Y: 1</text>
</g>
<!-- Node36&#45;&gt;Node35 -->
<g id="edge36" class="edge">
<title>Node36&#45;&gt;Node35</title>
<path fill="none" stroke="black" d="M1044.4,-19C1052.39,-19 1061.31,-19 1069.82,-19"/>
<polygon fill="black" stroke="black" points="1069.92,-22.5 1079.92,-19 1069.92,-15.5 1069.92,-22.5"/>
</g>
<!-- Node37 -->
<g id="node38" class="node">
<title>Node37</title>
<polygon fill="#ededed" stroke="black" points="954,-38 900,-38 900,0 954,0 954,-38"/>
<text text-anchor="middle" x="927" y="-22.8" font-family="Times New Roman,serif" font-size="14.00">X: 7,</text>
<text text-anchor="middle" x="927" y="-7.8" font-family="Times New Roman,serif" font-size="14.00">Y: 8</text>
</g>
<!-- Node37&#45;&gt;Node36 -->
<g id="edge37" class="edge">
<title>Node37&#45;&gt;Node36</title>
<path fill="none" stroke="black" d="M954.4,-19C962.39,-19 971.31,-19 979.82,-19"/>
<polygon fill="black" stroke="black" points="979.92,-22.5 989.92,-19 979.92,-15.5 979.92,-22.5"/>
</g>
<!-- Node38 -->
<g id="node39" class="node">
<title>Node38</title>
<polygon fill="#ededed" stroke="black" points="864,-38 810,-38 810,0 864,0 864,-38"/>
<text text-anchor="middle" x="837" y="-22.8" font-family="Times New Roman,serif" font-size="14.00">X: 2,</text>
<text text-anchor="middle" x="837" y="-7.8" font-family="Times New Roman,serif" font-size="14.00">Y: 6</text>
</g>
<!-- Node38&#45;&gt;Node37 -->
<g id="edge38" class="edge">
<title>Node38&#45;&gt;Node37</title>
<path fill="none" stroke="black" d="M864.4,-19C872.39,-19 881.31,-19 889.82,-19"/>
<polygon fill="black" stroke="black" points="889.92,-22.5 899.92,-19 889.92,-15.5 889.92,-22.5"/>
</g>
<!-- Node39 -->
<g id="node40" class="node">
<title>Node39</title>
<polygon fill="#ededed" stroke="black" points="774,-38 720,-38 720,0 774,0 774,-38"/>
<text text-anchor="middle" x="747" y="-22.8" font-family="Times New Roman,serif" font-size="14.00">X: 11,</text>
<text text-anchor="middle" x="747" y="-7.8" font-family="Times New Roman,serif" font-size="14.00">Y: 0</text>
</g>
<!-- Node39&#45;&gt;Node38 -->
<g id="edge39" class="edge">
<title>Node39&#45;&gt;Node38</title>
<path fill="none" stroke="black" d="M774.4,-19C782.39,-19 791.31,-19 799.82,-19"/>
<polygon fill="black" stroke="black" points="799.92,-22.5 809.92,-19 799.92,-15.5 799.92,-22.5"/>
</g>
<!-- Node40 -->
<g id="node41" class="node">
<title>Node40</title>
<polygon fill="#ededed" stroke="black" points="684,-38 630,-38 630,0 684,0 684,-38"/>
<text text-anchor="middle" x="657" y="-22.8" font-family="Times New Roman,serif" font-size="14.00">X: 3,</text>
<text text-anchor="middle" x="657" y="-7.8" font-family="Times New Roman,serif" font-size="14.00">Y: 2</text>
</g>
<!-- Node40&#45;&gt;Node39 -->
<g id="edge40" class="edge">
<title>Node40&#45;&gt;Node39</title>
<path fill="none" stroke="black" d="M684.4,-19C692.39,-19 701.31,-19 709.82,-19"/>
<polygon fill="black" stroke="black" points="709.92,-22.5 719.92,-19 709.92,-15.5 709.92,-22.5"/>
</g>
<!-- Node41 -->
<g id="node42" class="node">
<title>Node41</title>
<polygon fill="#ededed" stroke="black" points="594,-38 540,-38 540,0 594,0 594,-38"/>
<text text-anchor="middle" x="567" y="-22.8" font-family="Times New Roman,serif" font-size="14.00">X: 11,</text>
<text text-anchor="middle" x="567" y="-7.8" font-family="Times New Roman,serif" font-size="14.00">Y: 10</text>
</g>
<!-- Node41&#45;&gt;Node40 -->
<g id="edge41" class="edge">
<title>Node41&#45;&gt;Node40</title>
<path fill="none" stroke="black" d="M594.4,-19C602.39,-19 611.31,-19 619.82,-19"/>
<polygon fill="black" stroke="black" points="619.92,-22.5 629.92,-19 619.92,-15.5 619.92,-22.5"/>
</g>
<!-- Node42 -->
<g id="node43" class="node">
<title>Node42</title>
<polygon fill="#ededed" stroke="black" points="504,-38 450,-38 450,0 504,0 504,-38"/>
<text text-anchor="middle" x="477" y="-22.8" font-family="Times New Roman,serif" font-size="14.00">X: 5,</text>
<text text-anchor="middle" x="477" y="-7.8" font-family="Times New Roman,serif" font-size="14.00">Y: 10</text>
</g>
<!-- Node42&#45;&gt;Node41 -->
<g id="edge42" class="edge">
<title>Node42&#45;&gt;Node41</title>
<path fill="none" stroke="black" d="M504.4,-19C512.39,-19 521.31,-19 529.82,-19"/>
<polygon fill="black" stroke="black" points="529.92,-22.5 539.92,-19 529.92,-15.5 529.92,-22.5"/>
</g>
<!-- Node43 -->
<g id="node44" class="node">
<title>Node43</title>
<polygon fill="#ededed" stroke="black" points="414,-38 360,-38 360,0 414,0 414,-38"/>
<text text-anchor="middle" x="387" y="-22.8" font-family="Times New Roman,serif" font-size="14.00">X: 3,</text>
<text text-anchor="middle" x="387" y="-7.8" font-family="Times New Roman,serif" font-size="14.00">Y: 14</text>
</g>
<!-- Node43&#45;&gt;Node42 -->
<g id="edge43" class="edge">
<title>Node43&#45;&gt;Node42</title>
<path fill="none" stroke="black" d="M414.4,-19C422.39,-19 431.31,-19 439.82,-19"/>
<polygon fill="black" stroke="black" points="439.92,-22.5 449.92,-19 439.92,-15.5 439.92,-22.5"/>
</g>
<!-- Node44 -->
<g id="node45" class="node">
<title>Node44</title>
<polygon fill="#ededed" stroke="black" points="324,-38 270,-38 270,0 324,0 324,-38"/>
<text text-anchor="middle" x="297" y="-22.8" font-family="Times New Roman,serif" font-size="14.00">X: 7,</text>
<text text-anchor="middle" x="297" y="-7.8" font-family="Times New Roman,serif" font-size="14.00">Y: 5</text>
</g>
<!-- Node44&#45;&gt;Node43 -->
<g id="edge44" class="edge">
<title>Node44&#45;&gt;Node43</title>
<path fill="none" stroke="black" d="M324.4,-19C332.39,-19 341.31,-19 349.82,-19"/>
<polygon fill="black" stroke="black" points="349.92,-22.5 359.92,-19 349.92,-15.5 349.92,-22.5"/>
</g>
<!-- Node45 -->
<g id="node46" class="node">
<title>Node45</title>
<polygon fill="#ededed" stroke="black" points="234,-38 180,-38 180,0 234,0 234,-38"/>
<text text-anchor="middle" x="207" y="-22.8" font-family="Times New Roman,serif" font-size="14.00">X: 3,</text>
<text text-anchor="middle" x="207" y="-7.8" font-family="Times New Roman,serif" font-size="14.00">Y: 3</text>
</g>
<!-- Node45&#45;&gt;Node44 -->
<g id="edge45" class="edge">
<title>Node45&#45;&gt;Node44</title>
<path fill="none" stroke="black" d="M234.4,-19C242.39,-19 251.31,-19 259.82,-19"/>
<polygon fill="black" stroke="black" points="259.92,-22.5 269.92,-19 259.92,-15.5 259.92,-22.5"/>
</g>
<!-- Node46 -->
<g id="node47" class="node">
<title>Node46</title>
<polygon fill="#ededed" stroke="black" points="144,-38 90,-38 90,0 144,0 144,-38"/>
<text text-anchor="middle" x="117" y="-22.8" font-family="Times New Roman,serif" font-size="14.00">X: 4,</text>
<text text-anchor="middle" x="117" y="-7.8" font-family="Times New Roman,serif" font-size="14.00">Y: 6</text>
</g>
<!-- Node46&#45;&gt;Node45 -->
<g id="edge46" class="edge">
<title>Node46&#45;&gt;Node45</title>
<path fill="none" stroke="black" d="M144.4,-19C152.39,-19 161.31,-19 169.82,-19"/>
<polygon fill="black" stroke="black" points="169.92,-22.5 179.92,-19 169.92,-15.5 169.92,-22.5"/>
</g>
<!-- Node47 -->
<g id="node48" class="node">
<title>Node47</title>
<polygon fill="#ededed" stroke="black" points="54,-38 0,-38 0,0 54,0 54,-38"/>
<text text-anchor="middle" x="27" y="-22.8" font-family="Times New Roman,serif" font-size="14.00">X: 2,</text>
<text text-anchor="middle" x="27" y="-7.8" font-family="Times New Roman,serif" font-size="14.00">Y: 11</text>
</g>
<!-- Node47&#45;&gt;Node46 -->
<g id="edge47" class="edge">
<title>Node47&#45;&gt;Node46</title>
<path fill="none" stroke="black" d="M54.4,-19C62.39,-19 71.31,-19 79.82,-19"/>
<polygon fill="black" stroke="black" points="79.92,-22.5 89.92,-19 79.92,-15.5 79.92,-22.5"/>
</g>
</g>
</svg>
